<?xml version="1.0" encoding="UTF-8"?>
<svg width="217px" height="41px" viewBox="0 0 217 41" version="1.1" xmlns="http://www.w3.org/2000/svg" xmlns:xlink="http://www.w3.org/1999/xlink">
    <title>header-logo</title>
    <g id="页面-1" stroke="none" stroke-width="1" fill="none" fill-rule="evenodd">
        <g id="画板" transform="translate(-211.000000, -99.000000)" fill="#2E7EEE">
            <g id="header-logo" transform="translate(211.840000, 99.000000)">
                <g id="编组" transform="translate(0.000000, 5.720000)" fill-rule="nonzero">
                    <path d="M20.426,28.277 C18.684,29 16.773,29.4 14.769,29.4 C12.765,29.4 10.855,29 9.113,28.277 L20.426,28.277 Z" id="路径"></path>
                    <path d="M33.305,28.277 C31.563,29 29.653,29.4 27.649,29.4 C25.644,29.4 23.734,29 21.992,28.277 L33.305,28.277 Z" id="路径"></path>
                    <path d="M18.784,26.442 C18.918,26.542 19.054,26.642 19.192,26.738 L19.612,27.02 C19.328,26.837 19.052,26.644 18.784,26.442 L36.514,26.442 C35.978,26.845 35.414,27.214 34.822,27.543 L20.48,27.543 L20.478,27.542 L7.597,27.543 C7.006,27.214 6.441,26.846 5.904,26.442 L18.784,26.442 Z" id="路径"></path>
                    <path d="M14.21,24.606 C15.18,24.933 16.212,25.125 17.285,25.154 L17.019,24.884 L16.759,24.606 L27.081,24.606 C28.141,24.966 29.275,25.161 30.456,25.161 C31.639,25.161 32.775,24.965 33.835,24.606 L38.535,24.606 C38.18,24.992 37.808,25.361 37.415,25.708 L17.884,25.708 C17.68,25.528 17.48,25.345 17.286,25.154 L17.884,25.707 L5.002,25.707 C4.61,25.36 4.236,24.992 3.882,24.605 L14.21,24.606 Z" id="路径"></path>
                    <path d="M23.786,22.77 C23.863,22.833 23.939,22.895 24.017,22.956 C24.095,22.896 24.172,22.833 24.249,22.77 L27.089,22.77 C26.839,23.15 26.571,23.518 26.287,23.872 L25.417,23.872 L25.414,23.871 L16.132,23.871 C15.847,23.517 15.578,23.151 15.327,22.77 L23.786,22.77 Z" id="路径"></path>
                    <path d="M39.966,22.77 C39.716,23.15 39.448,23.517 39.164,23.872 L35.503,23.872 C36.08,23.555 36.625,23.186 37.129,22.77 L39.966,22.77 Z" id="路径"></path>
                    <path d="M10.906,22.77 C11.411,23.186 11.956,23.555 12.536,23.872 L3.253,23.872 C2.969,23.518 2.702,23.15 2.451,22.77 L10.906,22.77 Z" id="路径"></path>
                    <path d="M28.364,20.384 C28.124,20.954 27.851,21.505 27.544,22.036 L25.052,22.036 C25.549,21.532 25.996,20.979 26.384,20.384 L28.364,20.384 Z" id="路径"></path>
                    <path d="M8.772,20.384 C9.159,20.979 9.604,21.532 10.102,22.036 L1.993,22.036 C1.687,21.506 1.411,20.954 1.172,20.384 L8.772,20.384 Z" id="路径"></path>
                    <path d="M41.245,20.384 C41.005,20.954 40.731,21.505 40.423,22.036 L37.933,22.036 C38.43,21.532 38.876,20.979 39.263,20.384 L41.245,20.384 Z" id="路径"></path>
                    <path d="M21.651,20.384 C22.038,20.979 22.485,21.532 22.983,22.036 L14.875,22.036 C14.568,21.505 14.293,20.954 14.053,20.384 L21.651,20.384 Z" id="路径"></path>
                    <path d="M29.137,17.997 C29.007,18.561 28.844,19.112 28.651,19.649 L26.82,19.649 C27.104,19.124 27.345,18.572 27.536,17.997 L29.137,17.997 Z" id="路径"></path>
                    <path d="M7.618,17.997 C7.81,18.572 8.051,19.124 8.335,19.649 L0.888,19.649 C0.696,19.112 0.531,18.561 0.401,17.997 L7.618,17.997 Z" id="路径"></path>
                    <path d="M42.017,17.997 C41.887,18.561 41.722,19.112 41.529,19.649 L39.699,19.649 C39.983,19.124 40.225,18.572 40.417,17.997 L42.017,17.997 Z" id="路径"></path>
                    <path d="M20.498,17.997 C20.69,18.572 20.931,19.124 21.215,19.649 L13.767,19.649 C13.575,19.112 13.411,18.561 13.281,17.997 L20.498,17.997 Z" id="路径"></path>
                    <path d="M27.649,-8.8817842e-15 C35.789,-8.8817842e-15 42.389,6.577 42.395,14.693 L40.953,14.693 C40.947,8.918 36.25,4.239 30.457,4.239 C28.868,4.239 27.363,4.592 26.013,5.223 C25.933,5.129 25.853,5.036 25.771,4.943 L26.013,5.223 C25.917,5.267 25.821,5.313 25.727,5.362 L26.013,5.222 C28.18,7.781 29.489,11.084 29.492,14.693 L28.05,14.693 C28.046,11.344 26.463,8.365 24.006,6.453 L23.763,6.647 C21.444,8.564 19.965,11.456 19.962,14.693 L12.903,14.693 C12.906,10.605 14.583,6.908 17.287,4.245 L17.634,3.915 L17.287,4.245 C11.617,4.387 7.065,9.007 7.059,14.693 L-7.10542736e-15,14.693 C0.006,6.577 6.606,-8.8817842e-15 14.746,-8.8817842e-15 C17.06,-8.8817842e-15 19.249,0.533 21.197,1.48 L21.198,1.48 C23.147,0.533 25.336,-8.8817842e-15 27.648,-8.8817842e-15 L27.649,-8.8817842e-15 Z" id="路径"></path>
                </g>
                <text id="蓝桥技术社区" font-family="NotoSansSC-Bold, Noto Sans SC" font-size="28" font-weight="bold" letter-spacing="0.466666433">
                    <tspan x="44.7600007" y="32">蓝桥技术社区</tspan>
                </text>
            </g>
        </g>
    </g>
</svg>